<?xml version="1.0" standalone="no"?>
<!DOCTYPE svg PUBLIC "-//W3C//DTD SVG 20010904//EN"
 "http://www.w3.org/TR/2001/REC-SVG-20010904/DTD/svg10.dtd">
<svg version="1.0" xmlns="http://www.w3.org/2000/svg"
 width="1024.000000pt" height="1024.000000pt" viewBox="0 0 1024.000000 1024.000000"
 preserveAspectRatio="xMidYMid meet">

<g transform="translate(0.000000,1024.000000) scale(0.100000,-0.100000)"
fill="#000000" stroke="none">
<path d="M2960 6640 l0 -1810 2138 2 2137 3 3 233 2 232 -1907 0 -1908 0 2
1575 2 1575 -234 0 -235 0 0 -1810z"/>
<path d="M3710 6991 l0 -1458 233 1 232 1 3 1228 2 1227 198 0 c113 0 214 -5
237 -11 56 -16 109 -73 129 -139 14 -48 16 -175 16 -1181 l0 -1127 260 0 260
0 0 1142 c0 765 4 1153 11 1179 27 100 148 169 233 133 70 -29 66 56 66 -1264
l0 -1189 230 -1 230 -1 0 393 0 394 283 5 c226 4 294 8 342 22 246 70 429 239
515 473 47 128 52 198 48 637 -4 348 -7 408 -22 465 -70 248 -222 416 -451
497 l-80 28 -1487 3 -1488 2 0 -1459z m2866 983 c48 -16 106 -53 132 -84 7 -8
25 -40 40 -70 l27 -55 3 -313 c2 -181 -1 -340 -7 -378 -23 -149 -106 -240
-256 -280 -34 -9 -116 -14 -257 -14 l-208 0 0 605 0 605 238 0 c194 0 248 -3
288 -16z"/>
<path d="M6294 7457 c-94 -45 -153 -153 -139 -252 29 -190 256 -272 394 -142
65 62 88 162 60 258 -38 125 -195 193 -315 136z"/>
<path d="M4420 4045 l0 -365 75 0 75 0 0 365 0 365 -75 0 -75 0 0 -365z"/>
<path d="M4727 4199 c-4 -117 -7 -281 -7 -366 l0 -154 65 3 65 3 1 265 0 265
45 -140 c25 -77 64 -196 87 -265 l42 -125 70 0 70 0 17 50 c9 28 49 147 87
265 l70 215 0 -267 1 -266 66 1 65 2 -1 339 c0 187 -3 350 -6 363 -6 22 -10
23 -100 23 -52 0 -94 -1 -94 -3 0 -5 -141 -423 -157 -465 l-16 -44 -87 254
-86 253 -95 3 -96 3 -6 -212z"/>
<path d="M5630 4046 l0 -366 75 0 75 0 0 130 0 130 88 0 c203 0 291 72 292
238 0 83 -20 133 -70 175 -48 41 -93 49 -282 54 l-178 5 0 -366z m302 234 c67
-19 97 -88 66 -155 -18 -39 -63 -58 -145 -61 l-73 -2 0 114 0 114 58 0 c31 0
74 -5 94 -10z"/>
<path d="M4470 3533 c-57 -22 -70 -96 -23 -133 53 -41 133 -5 133 60 0 51 -61
92 -110 73z"/>
<path d="M5324 3530 c-28 -11 -54 -48 -54 -78 0 -12 12 -35 26 -49 22 -21 32
-25 66 -20 48 6 65 21 74 63 11 55 -58 107 -112 84z"/>
<path d="M6440 3166 l0 -376 65 0 65 0 0 373 0 374 -65 2 -65 2 0 -375z"/>
<path d="M3706 3412 c0 -64 2 -231 2 -371 l2 -253 188 4 c203 5 236 12 315 67
90 62 130 157 131 311 0 94 -2 111 -27 165 -34 72 -76 119 -137 150 -70 35
-138 45 -313 45 l-162 0 1 -118z m340 -17 c56 -16 105 -61 128 -117 24 -56 21
-181 -5 -238 -42 -92 -93 -121 -226 -128 l-93 -5 0 252 0 251 73 0 c40 0 96
-7 123 -15z"/>
<path d="M5585 3458 c-3 -13 -6 -48 -7 -78 l-3 -55 -47 -3 -48 -3 0 -45 0 -44
45 0 45 0 0 -167 c0 -140 3 -174 18 -202 33 -66 99 -91 196 -77 l46 7 0 53 0
54 -45 -6 c-73 -8 -75 -3 -75 179 l0 159 58 0 57 0 0 45 1 45 -58 0 -58 0 0
80 0 80 -60 0 c-54 0 -60 -2 -65 -22z"/>
<path d="M5155 3350 c-16 -4 -49 -16 -72 -28 -39 -20 -44 -21 -84 -7 -59 21
-164 19 -215 -4 -109 -50 -140 -201 -59 -287 40 -42 41 -44 19 -44 -8 0 -29
-13 -45 -29 -41 -42 -40 -91 2 -124 30 -24 31 -25 11 -31 -33 -11 -62 -55 -62
-93 0 -53 49 -97 125 -113 92 -19 250 -9 309 19 117 57 136 208 32 259 -36 18
-133 32 -222 32 -78 0 -104 14 -81 42 9 12 37 17 103 21 116 6 168 31 202 97
25 51 28 96 8 145 -14 32 -13 35 5 40 11 4 30 4 42 1 21 -5 22 -2 21 50 -1 30
-3 56 -5 58 -2 1 -17 0 -34 -4z m-178 -134 c23 -20 28 -32 28 -71 0 -39 -5
-51 -28 -71 -31 -27 -100 -33 -128 -11 -45 35 -53 114 -14 152 34 35 102 35
142 1z m72 -451 c14 -15 17 -26 10 -43 -12 -32 -52 -44 -149 -45 -105 -2 -133
10 -128 56 5 47 34 58 150 55 82 -3 101 -6 117 -23z"/>
<path d="M5284 3321 c-2 -2 -4 -123 -4 -268 l0 -263 70 0 70 0 0 268 0 267
-66 0 c-36 0 -68 -2 -70 -4z"/>
<path d="M6017 3315 c-22 -7 -50 -24 -64 -37 -27 -24 -65 -97 -57 -109 2 -4
23 -10 47 -14 23 -3 50 -9 59 -11 12 -4 21 4 31 28 18 43 39 59 77 60 47 2 79
-20 86 -59 4 -19 4 -36 2 -38 -2 -3 -42 -12 -89 -21 -108 -20 -156 -42 -196
-88 -28 -32 -33 -44 -33 -90 0 -96 64 -156 168 -156 53 0 116 24 140 53 11 12
18 9 46 -19 35 -35 55 -40 115 -28 29 6 31 9 31 49 0 34 -4 44 -20 48 -18 5
-20 14 -20 114 0 136 -14 230 -38 262 -32 45 -97 71 -177 71 -38 -1 -87 -7
-108 -15z m183 -330 c-7 -66 -35 -99 -91 -109 -71 -12 -116 59 -71 114 18 22
93 48 143 49 25 1 25 0 19 -54z"/>
<path d="M4430 3055 l0 -265 70 0 70 0 0 265 0 265 -70 0 -70 0 0 -265z"/>
<path d="M3462 2642 c-60 -22 -118 -71 -138 -119 -18 -42 -18 -136 0 -171 33
-64 87 -93 231 -127 58 -14 114 -31 125 -38 56 -34 41 -135 -24 -162 -92 -38
-198 5 -226 91 -10 29 -15 33 -38 29 -15 -2 -44 -7 -64 -10 -48 -7 -50 -29 -8
-102 36 -63 83 -97 165 -118 75 -19 125 -19 200 0 124 32 179 98 180 215 0
132 -53 182 -243 226 -93 22 -122 33 -144 55 -33 33 -35 57 -7 92 27 35 87 51
138 37 44 -12 91 -60 91 -92 0 -20 4 -20 67 -14 37 4 69 9 71 11 9 9 -11 66
-38 108 -57 90 -216 132 -338 89z"/>
<path d="M5373 2635 c-76 -32 -46 -145 39 -145 58 0 99 77 66 123 -20 26 -70
37 -105 22z"/>
<path d="M4062 2414 c-91 -45 -138 -142 -130 -270 7 -111 64 -192 157 -223 60
-20 162 -14 212 12 43 23 110 109 96 123 -3 4 -31 12 -61 19 -54 13 -54 12
-60 -11 -7 -27 -52 -54 -91 -54 -44 0 -85 28 -106 73 -36 80 -41 77 157 77
l176 0 -7 53 c-8 61 -37 132 -68 166 -60 64 -184 81 -275 35z m172 -96 c15
-13 29 -38 32 -55 l7 -33 -102 0 c-109 0 -115 4 -90 53 30 59 106 76 153 35z"/>
<path d="M4470 2180 l0 -260 70 0 69 0 0 150 c1 161 8 193 53 224 12 9 39 16
60 16 l38 0 0 66 0 67 -41 -6 c-25 -3 -56 -18 -79 -36 l-38 -30 2 32 1 32 -67
3 -68 3 0 -261z"/>
<path d="M5700 2424 c-115 -49 -172 -192 -136 -335 31 -120 106 -180 225 -180
81 0 136 23 174 73 23 31 53 105 45 113 -1 2 -28 6 -59 10 l-57 7 -7 -31 c-3
-17 -18 -40 -32 -51 -60 -47 -134 -6 -153 86 -25 119 23 224 103 224 34 0 87
-48 87 -79 0 -24 2 -25 69 -9 28 6 51 16 51 22 -1 22 -38 92 -61 113 -56 52
-175 69 -249 37z"/>
<path d="M6191 2414 c-91 -46 -137 -141 -129 -269 7 -109 57 -185 145 -222 42
-17 165 -17 206 1 39 17 92 71 106 109 12 31 13 30 -61 45 -44 9 -47 8 -52
-14 -13 -51 -112 -71 -161 -32 -29 23 -55 74 -55 108 0 19 6 20 176 20 l176 0
-7 57 c-9 75 -39 136 -84 173 -69 58 -173 67 -260 24z m160 -84 c21 -12 49
-60 49 -85 0 -12 -16 -15 -98 -15 -54 0 -101 3 -105 6 -9 9 30 81 50 93 23 13
79 14 104 1z"/>
<path d="M6685 2417 c-58 -33 -85 -78 -85 -143 0 -45 5 -59 30 -88 33 -37 58
-48 155 -66 75 -15 105 -33 105 -65 0 -37 -40 -59 -96 -52 -49 5 -84 30 -84
59 0 10 -4 18 -10 18 -11 0 -114 -22 -118 -25 -6 -6 21 -62 41 -83 43 -46 96
-66 177 -66 133 1 220 70 220 174 0 94 -53 135 -205 160 -61 10 -95 32 -95 61
0 25 38 49 76 49 35 0 84 -33 84 -57 0 -13 11 -15 60 -11 33 2 62 7 65 10 9 8
-28 79 -52 100 -58 52 -197 65 -268 25z"/>
<path d="M4805 2363 c14 -38 56 -151 93 -253 l69 -185 74 -3 74 -3 92 238 c51
131 95 246 99 256 5 15 -1 17 -58 17 l-64 0 -59 -152 c-87 -230 -72 -228 -145
-24 l-63 176 -68 0 -69 0 25 -67z"/>
<path d="M5340 2175 l0 -255 70 0 70 0 0 255 0 255 -70 0 -70 0 0 -255z"/>
</g>
</svg>
